REM MD5 2796edde3759a2401d84ce6d1b81b1f5
FILE "PlayStation Underground Number 4 (USA) (Disc 2).bin" BINARY
  TRACK 01 MODE2/2352
    INDEX 01 00:00:00
  TRACK 02 AUDIO
    INDEX 00 38:20:32
    INDEX 01 38:22:32
  TRACK 03 AUDIO
    INDEX 00 43:56:30
    INDEX 01 43:58:30
  TRACK 04 AUDIO
    INDEX 00 44:30:06
    INDEX 01 44:32:06
  TRACK 05 AUDIO
    INDEX 00 45:58:44
    INDEX 01 46:00:44
  TRACK 06 AUDIO
    INDEX 00 49:04:37
    INDEX 01 49:06:37
REM LEADOUT 49:12:33
